# xmcd
#
# Track frame offsets: 
#        150
#        20783
#        36322
#        55861
#        75466
#        85971
#        102571
#        123444
#        144128
#        161157
#        169745
#
# Disc length: 2492 seconds
#
# Revision: 0
# Processed by: cddbd v1.5.2PL0 Copyright (c) Steve Scherf et al.
# Submitted via: ExactAudioCopyFreeDBPlugin 1.0
#
DISCID=8e09ba0b
DTITLE=Nicole Willis - My Name is Nicole Willis
DYEAR=2017
DGENRE=Soul
TTITLE0=Introducing (ft Ian F. Svenonius)
TTITLE1=Break Free (Shake A Tailfeather)
TTITLE2=Haunted By the Devil
TTITLE3=One in a Million
TTITLE4=(Everybody) Do the Watusi
TTITLE5=No Child Denied
TTITLE6=Together We Climb
TTITLE7=When We Go Down
TTITLE8=Togetherness
TTITLE9=Final Call (ft Ian F. Svenonius)
TTITLE10=Still Got a Way to Fall (bonus track)
EXTD=
EXTT0=
EXTT1=
EXTT2=
EXTT3=
EXTT4=
EXTT5=
EXTT6=
EXTT7=
EXTT8=
EXTT9=
EXTT10=
PLAYORDER=
